<svg xmlns="http://www.w3.org/2000/svg" width="655.359" height="655.359" fill-rule="evenodd" clip-rule="evenodd" image-rendering="optimizeQuality" shape-rendering="geometricPrecision" text-rendering="geometricPrecision" viewBox="0 0 6.827 6.827"><path fill="#1e88e5" fill-rule="nonzero" d="M3.5742 1.01419c0,-0.0888386 -0.0720236,-0.160862 -0.160862,-0.160862 -0.0888386,0 -0.160862,0.0720236 -0.160862,0.160862l0 4.79828c0,0.0888386 0.0720236,0.160862 0.160862,0.160862 0.0888386,0 0.160862,-0.0720236 0.160862,-0.160862l0 -4.79828z"/><path fill="#1976d2" fill-rule="nonzero" d="M2.83718 5.61768c-0.0520512,0.0718346 -0.0360157,0.172272 0.0358189,0.224323 0.0718346,0.0520512 0.172276,0.0360157 0.224327,-0.0358189l0.446083 -0.615768c0.0520512,-0.0718346 0.0360157,-0.172276 -0.0358189,-0.224327 -0.0718346,-0.0520512 -0.172272,-0.0360157 -0.224323,0.0358189l-0.446087 0.615772z"/><path fill="#1976d2" fill-rule="nonzero" d="M3.72935 5.80619c.0520512.0718346.152492.0878701.224327.0358189.0718346-.0520512.0878701-.152488.0358189-.224323l-.446087-.615772c-.0520512-.0718346-.152488-.0878701-.224323-.0358189-.0718346.0520512-.0878701.152492-.0358189.224327l.446083.615768zM3.09732 1.02047c-.0520512-.0718346-.152492-.0878701-.224327-.0358189-.0718346.0520512-.0878701.152492-.0358189.224327l.446087.615768c.0520512.0718346.152488.0878701.224323.0358189.0718346-.0520512.0878701-.152488.0358189-.224323l-.446083-.615772z"/><path fill="#1976d2" fill-rule="nonzero" d="M3.98949 1.20898c0.0520512,-0.0718346 0.0360157,-0.172276 -0.0358189,-0.224327 -0.0718346,-0.0520512 -0.172276,-0.0360157 -0.224327,0.0358189l-0.446083 0.615772c-0.0520512,0.0718346 -0.0360157,0.172272 0.0358189,0.224323 0.0718346,0.0520512 0.172272,0.0360157 0.224323,-0.0358189l0.446087 -0.615768z"/><path fill="#1e88e5" fill-rule="nonzero" d="M5.22353 1.83063c0.062815,-0.0628189 0.062815,-0.164677 0,-0.227496 -0.0628189,-0.062815 -0.164677,-0.062815 -0.227496,0l-3.39289 3.39289c-0.062815,0.0628189 -0.062815,0.164677 0,0.227496 0.0628189,0.062815 0.164677,0.062815 0.227496,0l3.39289 -3.39289z"/><path fill="#1976d2" fill-rule="nonzero" d="M1.44722 4.56463c-0.0875984,0.0139921 -0.147283,0.0963504 -0.133291,0.183953 0.0139882,0.0875984 0.0963465,0.14728 0.183949,0.133291l0.750843 -0.119984c0.0876024,-0.0139882 0.147283,-0.0963504 0.133295,-0.183949 -0.0139882,-0.0876024 -0.0963504,-0.147283 -0.183949,-0.133295l-0.750846 0.119984z"/><path fill="#1976d2" fill-rule="nonzero" d="M1.94478 5.32879c-.0139882.0876024.0456929.169961.133291.183949.0876024.0139921.169961-.0456929.183953-.133291l.119984-.750846c.0139882-.0875984-.0456929-.169961-.133295-.183949-.0875984-.0139882-.169961.0456929-.183949.133295l-.119984.750843zM4.88188 1.49787c.0139882-.0876024-.0456929-.169961-.133291-.183949-.0876024-.0139882-.169965.0456929-.183953.133291l-.119984.750846c-.0139882.0875984.0456929.169961.133295.183949.0875984.0139882.169961-.0456929.183949-.133295l.119984-.750843z"/><path fill="#1976d2" fill-rule="nonzero" d="M5.37945 2.26202c0.0875984,-0.0139882 0.14728,-0.0963504 0.133291,-0.183953 -0.0139882,-0.0875984 -0.0963465,-0.14728 -0.183949,-0.133291l-0.750843 0.119984c-0.0876024,0.0139882 -0.147283,0.0963504 -0.133295,0.183949 0.0139882,0.0876024 0.0963504,0.147283 0.183949,0.133295l0.750846 -0.119984z"/><path fill="#1e88e5" fill-rule="nonzero" d="M5.81247 3.57419c0.0888386,0 0.160862,-0.0720236 0.160862,-0.160862 0,-0.0888386 -0.0720236,-0.160862 -0.160862,-0.160862l-4.79828 0c-0.0888386,0 -0.160862,0.0720236 -0.160862,0.160862 0,0.0888386 0.0720236,0.160862 0.160862,0.160862l4.79828 0z"/><path fill="#1976d2" fill-rule="nonzero" d="M1.20898 2.83717c-0.0718346,-0.0520512 -0.172272,-0.0360157 -0.224323,0.0358189 -0.0520512,0.0718346 -0.0360157,0.172276 0.0358189,0.224327l0.615768 0.446083c0.0718346,0.0520512 0.172276,0.0360157 0.224327,-0.0358189 0.0520512,-0.0718346 0.0360157,-0.172272 -0.0358189,-0.224323l-0.615772 -0.446087z"/><path fill="#1976d2" fill-rule="nonzero" d="M1.02048 3.72934c-.0718346.0520512-.0878701.152492-.0358189.224327.0520512.0718346.152488.0878701.224323.0358189l.615772-.446087c.0718346-.0520512.0878701-.152488.0358189-.224323-.0520512-.0718346-.152492-.0878701-.224327-.0358189l-.615768.446083zM5.80619 3.09731c.0718346-.0520512.0878701-.152492.0358189-.224327-.0520512-.0718346-.152492-.0878701-.224327-.0358189l-.615768.446087c-.0718346.0520512-.0878701.152488-.0358189.224323.0520512.0718346.152488.0878701.224323.0358189l.615772-.446083z"/><path fill="#1976d2" fill-rule="nonzero" d="M5.61768 3.98948c0.0718346,0.0520512 0.172276,0.0360157 0.224327,-0.0358189 0.0520512,-0.0718346 0.0360157,-0.172276 -0.0358189,-0.224327l-0.615772 -0.446083c-0.0718346,-0.0520512 -0.172272,-0.0360157 -0.224323,0.0358189 -0.0520512,0.0718346 -0.0360157,0.172272 0.0358189,0.224323l0.615768 0.446087z"/><path fill="#1e88e5" fill-rule="nonzero" d="M4.99603 5.22352c0.0628189,0.062815 0.164677,0.062815 0.227496,0 0.062815,-0.0628189 0.062815,-0.164677 0,-0.227496l-3.39289 -3.39289c-0.0628189,-0.062815 -0.164677,-0.062815 -0.227496,0 -0.062815,0.0628189 -0.062815,0.164677 0,0.227496l3.39289 3.39289z"/><path fill="#1976d2" fill-rule="nonzero" d="M2.26203 1.44721c-0.0139921,-0.0875984 -0.0963504,-0.147283 -0.183953,-0.133291 -0.0875984,0.0139882 -0.14728,0.0963465 -0.133291,0.183949l0.119984 0.750843c0.0139882,0.0876024 0.0963504,0.147283 0.183949,0.133295 0.0876024,-0.0139882 0.147283,-0.0963504 0.133295,-0.183949l-0.119984 -0.750846z"/><path fill="#1976d2" fill-rule="nonzero" d="M1.49787 1.94478c-.0876024-.0139882-.169961.0456929-.183949.133291-.0139921.0876024.0456929.169961.133291.183953l.750846.119984c.0875984.0139882.169961-.0456929.183949-.133295.0139882-.0875984-.0456929-.169961-.133295-.183949l-.750843-.119984zM5.32879 4.88187c.0876024.0139882.169961-.0456929.183949-.133291.0139882-.0876024-.0456929-.169965-.133291-.183953l-.750846-.119984c-.0875984-.0139882-.169961.0456929-.183949.133295-.0139882.0875984.0456929.169961.133295.183949l.750843.119984z"/><path fill="#1976d2" fill-rule="nonzero" d="M4.56464 5.37944c0.0139882,0.0875984 0.0963504,0.14728 0.183953,0.133291 0.0875984,-0.0139882 0.14728,-0.0963465 0.133291,-0.183949l-0.119984 -0.750843c-0.0139882,-0.0876024 -0.0963504,-0.147283 -0.183949,-0.133295 -0.0876024,0.0139882 -0.147283,0.0963504 -0.133295,0.183949l0.119984 0.750846z"/><rect width="6.827" height="6.827" fill="none"/></svg>